<svg width="124" height="48" viewBox="0 0 124 48" fill="none" xmlns="http://www.w3.org/2000/svg">
<path d="M7.99538 34.7242C7.32607 35.069 6.62633 35.2414 5.89617 35.2414C4.98346 35.1198 4.11132 34.8966 3.27975 34.5721C2.44818 34.2273 1.82956 33.8115 1.42392 33.3248C1.20081 31.9253 1.01827 30.6475 0.876297 29.4914C0.73432 28.3353 0.622768 27.2401 0.541639 26.2057C0.440227 25.151 0.37938 24.1572 0.359098 23.2242C0.338815 22.2709 0.328674 21.3075 0.328674 20.334C0.328674 19.0562 0.338815 17.7074 0.359098 16.2876C0.37938 14.8679 0.419945 13.3569 0.480792 11.7545C0.521357 10.1522 0.55178 8.42825 0.572062 6.58256C0.592345 4.75716 0.602486 2.76949 0.602486 0.619568C0.987849 0.619568 1.54561 0.720979 2.27578 0.923802C3.00594 1.14691 3.7361 1.40044 4.46626 1.68439C5.19643 1.96834 5.84546 2.25229 6.41336 2.53624C6.98127 2.84048 7.29564 3.09401 7.35649 3.29683C7.07254 4.08784 6.81901 5.12224 6.5959 6.40002C6.39308 7.67781 6.22068 9.09757 6.07871 10.6593C5.95701 12.221 5.86574 13.874 5.8049 15.6183C5.74405 17.3423 5.71362 19.0562 5.71362 20.7599C5.71362 22.0377 5.73391 23.1836 5.77447 24.1977C5.79475 25.1916 5.82518 26.0941 5.86574 26.9054C5.90631 27.7167 5.97729 28.4773 6.07871 29.1872C6.15983 29.8768 6.25111 30.5562 6.35252 31.2256C7.16381 28.812 8.04609 26.3984 8.99936 23.9848C9.93234 21.5712 10.9059 19.2489 11.92 17.0178C12.9341 14.807 13.9381 12.7281 14.9319 10.781C15.9258 8.85418 16.8689 7.17075 17.7613 5.73071C18.6537 4.31095 19.4549 3.18528 20.1648 2.3537C20.8746 1.50185 21.4527 1.0455 21.8989 0.984649C22.2234 1.0455 22.5581 1.16719 22.9029 1.34973C23.268 1.53227 23.6026 1.75538 23.9068 2.01905C24.2314 2.28272 24.5153 2.56667 24.7587 2.8709C25.0224 3.17514 25.2252 3.48951 25.3672 3.81403C24.3125 4.17911 23.1767 5.04111 21.9597 6.40002C20.7631 7.75894 19.5563 9.4018 18.3394 11.3286C17.1224 13.2352 15.9359 15.3242 14.7798 17.5958C13.6237 19.8472 12.5893 22.0478 11.6766 24.1977C10.7436 26.3679 9.95263 28.386 9.30359 30.252C8.65456 32.1383 8.21849 33.629 7.99538 34.7242ZM34.4029 25.4147C33.7336 27.4835 33.0744 29.3697 32.4254 31.0734C31.7764 32.7772 31.0868 34.3389 30.3566 35.7586C29.6062 37.1987 28.805 38.5272 27.9532 39.7441C27.1013 40.9408 26.1683 42.0766 25.1542 43.1515C23.8359 44.5307 22.4871 45.5753 21.1079 46.2852C19.7084 47.0153 18.3191 47.3804 16.9399 47.3804C16.23 47.3804 15.5201 47.2993 14.8102 47.137C14.1206 46.995 13.4716 46.7821 12.8631 46.4981C12.2547 46.2345 11.7172 45.9302 11.2507 45.5854C10.7842 45.2203 10.4495 44.835 10.2467 44.4293C10.2467 44.1048 10.4394 43.8107 10.8248 43.547C11.1696 43.8513 11.4535 44.0947 11.6766 44.2772C11.92 44.4395 12.1431 44.5814 12.3459 44.7031C12.569 44.8046 12.7921 44.8755 13.0153 44.9161C13.2586 44.9364 13.5426 44.9465 13.8671 44.9465C15.4897 44.9465 17.0717 44.4699 18.6132 43.5166C20.1546 42.5634 21.6149 41.2146 22.9941 39.4703C24.3733 37.726 25.6308 35.6167 26.7667 33.1422C27.9025 30.6475 28.8659 27.8688 29.6569 24.8062C29.2918 25.3741 28.8354 26.0738 28.2878 26.9054C27.7605 27.7167 27.1723 28.528 26.5233 29.3393C25.8539 30.1506 25.1745 30.8808 24.4849 31.5298C23.7953 32.1788 23.126 32.625 22.4769 32.8684C22.0105 32.8279 21.5338 32.7366 21.047 32.5946C20.54 32.4324 20.0735 32.2092 19.6476 31.9253C19.2014 31.6413 18.8059 31.2965 18.4611 30.8909C18.1163 30.5055 17.8931 30.0492 17.7917 29.5218C17.7917 28.7105 17.812 28.0514 17.8526 27.5443C17.9134 27.0575 18.0148 26.5099 18.1568 25.9014C18.4205 24.8265 18.7957 23.6096 19.2825 22.2506C19.7895 20.8917 20.3777 19.5531 21.047 18.2347C21.7164 16.9164 22.4465 15.6792 23.2375 14.5231C24.0488 13.367 24.9007 12.4644 25.7931 11.8154C26.0162 11.8154 26.3002 11.8357 26.645 11.8762C26.9898 11.9168 27.3447 11.9979 27.7098 12.1196C28.0749 12.221 28.4298 12.3529 28.7746 12.5151C29.1194 12.6774 29.4135 12.8802 29.6569 13.1236C29.3526 13.4076 28.6732 14.3608 27.6185 15.9834C26.5638 17.606 25.3976 19.9385 24.1198 22.9808C23.9778 23.285 23.8054 23.7414 23.6026 24.3499C23.4201 24.938 23.2274 25.5567 23.0246 26.2057C22.842 26.8547 22.6798 27.4936 22.5378 28.1224C22.3958 28.7511 22.3248 29.248 22.3248 29.6131C22.3248 29.8362 22.3654 30.0086 22.4465 30.1303C22.5074 30.252 22.5682 30.3331 22.6291 30.3737C23.1361 30.2926 23.8156 29.8768 24.6674 29.1263C25.5193 28.3759 26.4928 27.2097 27.5881 25.6276C28.2574 24.5932 28.876 23.569 29.4439 22.5549C30.0118 21.561 30.5696 20.5469 31.1172 19.5125C31.6851 18.4984 32.2632 17.4539 32.8513 16.3789C33.4598 15.304 34.0987 14.1986 34.768 13.0628C35.1331 13.0628 35.5286 13.1033 35.9545 13.1844C36.3805 13.2656 36.7962 13.367 37.2019 13.4887C37.6075 13.6307 37.9523 13.7726 38.2363 13.9146C38.5405 14.0769 38.7636 14.2391 38.9056 14.4014C38.0335 16.2876 37.212 18.1232 36.4413 19.908C35.6706 21.6929 34.9911 23.5284 34.4029 25.4147ZM63.8224 18.9345C63.3762 18.9548 62.8184 19.2387 62.1491 19.7863C61.5001 20.3542 60.8003 21.0743 60.0499 21.9464C59.2995 22.7983 58.5186 23.7515 57.7073 24.8062C56.896 25.8609 56.1151 26.9054 55.3647 27.9398C54.6142 28.9742 53.9145 29.9478 53.2655 30.8605C52.6164 31.7732 52.0587 32.4932 51.5922 33.0205C50.9634 32.7771 50.426 32.4019 49.9797 31.8949C49.5335 31.4081 49.209 30.7895 49.0062 30.039C49.1482 29.1669 49.3409 28.2542 49.5842 27.3009C49.8479 26.3477 50.1826 25.364 50.5882 24.3499C51.0141 23.3155 51.5313 22.2405 52.1398 21.125C52.7483 20.0094 53.4886 18.8229 54.3607 17.5654C53.9348 17.5857 53.3567 17.8899 52.6266 18.4781C51.8761 19.0663 51.075 19.8168 50.2231 20.7295C49.3713 21.6625 48.4991 22.707 47.6067 23.8631C46.694 24.9989 45.8421 26.1246 45.0511 27.2401C43.9965 28.7207 43.1142 30.0086 42.4043 31.1039C41.7147 32.2194 41.2178 32.8786 40.9136 33.0814C40.1631 32.5338 39.6459 31.9456 39.362 31.3168C39.078 30.6881 38.865 29.9985 38.7231 29.248C38.7636 28.5584 38.8752 27.7066 39.0577 26.6925C39.2403 25.6581 39.5039 24.6034 39.8487 23.5284C40.4978 21.4596 41.3395 19.401 42.3739 17.3525C43.4083 15.3039 44.4122 13.4278 45.3858 11.7241C46.1768 11.9067 46.8867 12.1805 47.5154 12.5456C48.1645 12.9106 48.8439 13.4481 49.5538 14.158C49.2699 15.0301 48.8338 15.9631 48.2456 16.957C47.6371 17.9305 47.0084 18.9548 46.3593 20.0297C45.7103 21.1047 45.112 22.2101 44.5644 23.3459C44.037 24.4817 43.6821 25.6378 43.4995 26.8142C44.2906 25.6783 45.2337 24.3701 46.3289 22.8895C47.4242 21.4089 48.5498 20.0196 49.7059 18.7215C50.862 17.4032 52.008 16.2978 53.1438 15.4054C54.2796 14.4927 55.2937 14.0363 56.1861 14.0363C56.5309 14.0363 56.9061 14.087 57.3118 14.1884C57.6972 14.3101 58.0622 14.4521 58.407 14.6144C58.7518 14.7969 59.0358 14.9693 59.2589 15.1316C59.482 15.2735 59.6138 15.3851 59.6544 15.4662C59.5124 16.0341 59.1778 16.815 58.6504 17.8088C58.1231 18.7824 57.5653 19.8066 56.9771 20.8816C56.3687 21.9565 55.8109 23.0011 55.3038 24.0152C54.7968 25.0293 54.5027 25.8305 54.4216 26.4186C55.8008 24.5121 57.0988 22.7881 58.3158 21.2467C59.553 19.7052 60.7091 18.3767 61.784 17.2612C62.859 16.1659 63.863 15.3141 64.796 14.7056C65.7087 14.1174 66.5808 13.8233 67.4124 13.8233C67.9803 13.8233 68.5076 13.9653 68.9944 14.2493C69.5015 14.5535 69.8463 14.9896 70.0288 15.5575C69.7854 16.4093 69.3696 17.4336 68.7814 18.6302C68.1932 19.8269 67.6051 21.0844 67.0169 22.4028C66.4287 23.7211 65.8912 25.0192 65.4044 26.297C64.9379 27.5747 64.7047 28.7207 64.7047 29.7348C64.7047 30.3433 64.796 30.7388 64.9785 30.9213C65.1408 31.1039 65.3841 31.1951 65.7087 31.1951C66.0332 31.1951 66.3476 31.1343 66.6518 31.0126C66.956 30.8706 67.1791 30.7996 67.3211 30.7996C67.4834 30.9213 67.5848 31.0633 67.6253 31.2256C67.6456 31.4081 67.6558 31.5704 67.6558 31.7123C67.0879 32.1585 66.5098 32.5338 65.9216 32.838C65.3132 33.1422 64.6438 33.2943 63.9137 33.2943C63.2241 33.2943 62.6663 33.1727 62.2404 32.9293C61.7942 32.7062 61.4291 32.4019 61.1451 32.0166C60.8612 31.6109 60.6584 31.1546 60.5367 30.6475C60.4353 30.1404 60.3846 29.5827 60.3846 28.9742C60.3846 28.021 60.5063 27.0677 60.7496 26.1144C61.0133 25.1611 61.3175 24.2484 61.6623 23.3763C62.0274 22.5042 62.4026 21.6929 62.788 20.9424C63.1937 20.192 63.5385 19.5227 63.8224 18.9345ZM87.0355 14.371C86.9138 16.1355 86.5994 17.6466 86.0924 18.9041C85.5853 20.1616 84.8552 21.2669 83.9019 22.2202C82.9486 23.1735 81.7925 24.0355 80.4336 24.8062C79.0747 25.5769 77.4825 26.3172 75.6571 27.0271C75.6571 27.1894 75.6571 27.3618 75.6571 27.5443C75.6369 27.7269 75.6267 27.9195 75.6267 28.1224C75.6267 28.4874 75.6571 28.8728 75.718 29.2785C75.7585 29.6841 75.8498 30.0492 75.9918 30.3737C76.1338 30.7185 76.3366 31.0024 76.6003 31.2256C76.8639 31.4284 77.1884 31.5298 77.5738 31.5298C78.3445 31.5298 79.095 31.3574 79.8251 31.0126C80.5756 30.6881 81.2855 30.2723 81.9548 29.7652C82.6241 29.2785 83.2427 28.741 83.8106 28.1528C84.3988 27.5646 84.916 27.0271 85.3622 26.5403C85.6462 26.804 85.8896 27.0474 86.0924 27.2705C84.8146 28.9742 83.4151 30.394 81.8939 31.5298C80.3728 32.6453 78.9327 33.3552 77.5738 33.6594C75.6267 33.4363 74.1055 32.7264 73.0103 31.5298C71.915 30.3129 71.3674 28.8525 71.3674 27.1488C71.3674 25.9927 71.5297 24.8062 71.8542 23.5893C72.1787 22.3926 72.6351 21.2264 73.2233 20.0906C73.7912 18.975 74.4706 17.9204 75.2616 16.9265C76.0324 15.9327 76.8639 15.0707 77.7563 14.3405C78.669 13.5901 79.5919 13.0019 80.5249 12.576C81.4781 12.1501 82.4314 11.9371 83.3847 11.9371C84.6828 12.1196 85.8997 12.9309 87.0355 14.371ZM84.0844 15.7704C83.334 15.8921 82.543 16.2065 81.7114 16.7136C80.8798 17.2206 80.1091 17.9001 79.3992 18.7519C78.6691 19.6038 78.0099 20.5976 77.4217 21.7334C76.8132 22.8692 76.3366 24.0963 75.9918 25.4147C78.2634 24.2789 80.1598 22.8794 81.681 21.2162C83.1819 19.5531 83.983 17.7378 84.0844 15.7704ZM87.9786 31.1647C88.1206 30.3331 88.364 29.2379 88.7088 27.879C89.0739 26.5403 89.4998 25.1104 89.9866 23.5893C90.4531 22.0681 90.9601 20.5469 91.5077 19.0258C92.0554 17.4843 92.5827 16.1051 93.0898 14.8882C93.4548 13.9957 93.7794 13.3061 94.0633 12.8194C94.3473 12.3123 94.6616 11.8965 95.0064 11.572C95.3918 11.6126 95.7974 11.7038 96.2234 11.8458C96.6493 11.9878 97.0651 12.1602 97.4707 12.363C97.8764 12.5658 98.2313 12.7788 98.5356 13.0019C98.8398 13.2047 99.0832 13.4076 99.2657 13.6104C98.495 14.5231 97.8155 15.5575 97.2274 16.7136C96.6595 17.8697 96.0713 19.3604 95.4628 21.1858C97.0042 19.8269 98.3632 18.5187 99.5395 17.2612C100.716 16.024 101.811 14.6346 102.825 13.0932C103.008 12.9512 103.312 12.8802 103.738 12.8802C104.123 12.8802 104.509 12.9411 104.894 13.0628C105.259 13.2047 105.513 13.3873 105.655 13.6104C105.148 14.9693 104.894 16.3181 104.894 17.6567C104.894 18.8939 105.077 19.8269 105.442 20.4557C105.401 20.6382 105.208 20.9627 104.864 21.4292C104.499 21.916 104.103 22.3723 103.677 22.7983C102.927 22.4129 102.247 21.8653 101.639 21.1554C101.051 20.4658 100.615 19.7052 100.331 18.8736C98.9919 19.8269 97.8561 20.7497 96.9231 21.6422C95.9901 22.5346 95.189 23.5284 94.5197 24.6237C93.8504 25.7189 93.2824 26.9764 92.816 28.3962C92.3495 29.8159 91.9033 31.4994 91.4773 33.4465C91.2137 33.4262 90.9094 33.3349 90.5646 33.1727C90.1995 33.0104 89.8446 32.8177 89.4998 32.5946C89.1347 32.3715 88.8102 32.1281 88.5262 31.8644C88.2423 31.6211 88.0598 31.3878 87.9786 31.1647ZM120.866 14.7969C121.15 14.7969 121.485 14.8476 121.87 14.949C122.235 15.0504 122.58 15.1823 122.905 15.3445C123.209 15.4865 123.473 15.6487 123.696 15.8313C123.899 15.9935 124 16.1457 124 16.2876C123.432 17.4843 122.905 18.681 122.418 19.8776C121.951 21.0945 121.546 22.2506 121.201 23.3459C120.856 24.4614 120.593 25.5059 120.41 26.4795C120.227 27.4328 120.136 28.2643 120.136 28.9742C120.136 29.7652 120.217 30.4244 120.38 30.9517C120.562 31.4791 120.846 31.8543 121.231 32.0774C120.887 32.3208 120.451 32.5135 119.923 32.6555C119.376 32.7974 118.889 32.8684 118.463 32.8684C116.942 32.8684 116.181 31.8137 116.181 29.7044C116.181 28.0818 116.719 25.871 117.794 23.0721C117.226 24.3701 116.567 25.5972 115.816 26.7533C115.086 27.8891 114.335 28.9032 113.565 29.7957C112.794 30.6678 112.023 31.3777 111.253 31.9253C110.462 32.4932 109.742 32.8279 109.093 32.9293C108.038 32.8887 107.186 32.3918 106.537 31.4385C105.888 30.4852 105.563 29.2683 105.563 27.7877C105.563 26.2057 105.908 24.5324 106.598 22.7678C107.267 21.0033 108.139 19.3706 109.214 17.8697C110.269 16.3688 111.425 15.1113 112.682 14.0972C113.92 13.083 115.126 12.5456 116.303 12.4847C116.587 12.5861 116.901 12.7585 117.246 13.0019C117.611 13.2656 117.956 13.5698 118.28 13.9146C118.605 14.2391 118.879 14.5839 119.102 14.949C119.325 15.2938 119.457 15.598 119.497 15.8617C118.362 16.024 117.185 16.5817 115.968 17.535C114.772 18.468 113.676 19.5937 112.682 20.912C111.709 22.2304 110.908 23.64 110.279 25.1409C109.671 26.6418 109.366 28.0514 109.366 29.3697C109.366 29.8971 109.559 30.2317 109.944 30.3737C110.776 30.2114 111.729 29.5117 112.804 28.2745C113.879 27.0373 115.187 25.1307 116.729 22.5549C117.013 22.0478 117.327 21.4799 117.672 20.8512C118.037 20.2224 118.402 19.5632 118.767 18.8736C119.132 18.2043 119.497 17.5147 119.862 16.8048C120.207 16.1152 120.542 15.4459 120.866 14.7969Z" fill="url(#paint0_linear_44_4)"/>
<defs>
<linearGradient id="paint0_linear_44_4" x1="0.713606" y1="19.6804" x2="132.998" y2="22.1151" gradientUnits="userSpaceOnUse">
<stop stop-color="#050922"/>
<stop offset="0.245" stop-color="#306365"/>
<stop offset="1" stop-color="#6EE6C7"/>
</linearGradient>
</defs>
</svg>
