<svg width="220" height="82" viewBox="0 0 220 82" fill="none" xmlns="http://www.w3.org/2000/svg">
<path d="M103.995 41.7242C103.326 42.069 102.626 42.2414 101.896 42.2414C100.983 42.1198 100.111 41.8966 99.2797 41.5721C98.4482 41.2273 97.8296 40.8115 97.4239 40.3248C97.2008 38.9253 97.0183 37.6475 96.8763 36.4914C96.7343 35.3353 96.6228 34.2401 96.5416 33.2057C96.4402 32.151 96.3794 31.1572 96.3591 30.2242C96.3388 29.2709 96.3287 28.3075 96.3287 27.334C96.3287 26.0562 96.3388 24.7074 96.3591 23.2876C96.3794 21.8679 96.4199 20.3569 96.4808 18.7545C96.5214 17.1522 96.5518 15.4283 96.5721 13.5826C96.5923 11.7572 96.6025 9.76949 96.6025 7.61957C96.9878 7.61957 97.5456 7.72098 98.2758 7.9238C99.0059 8.14691 99.7361 8.40044 100.466 8.68439C101.196 8.96834 101.845 9.25229 102.413 9.53624C102.981 9.84048 103.296 10.094 103.356 10.2968C103.073 11.0878 102.819 12.1222 102.596 13.4C102.393 14.6778 102.221 16.0976 102.079 17.6593C101.957 19.221 101.866 20.874 101.805 22.6183C101.744 24.3423 101.714 26.0562 101.714 27.7599C101.714 29.0377 101.734 30.1836 101.774 31.1977C101.795 32.1916 101.825 33.0941 101.866 33.9054C101.906 34.7167 101.977 35.4773 102.079 36.1872C102.16 36.8768 102.251 37.5562 102.353 38.2256C103.164 35.812 104.046 33.3984 104.999 30.9848C105.932 28.5712 106.906 26.2489 107.92 24.0178C108.934 21.807 109.938 19.7281 110.932 17.781C111.926 15.8542 112.869 14.1707 113.761 12.7307C114.654 11.3109 115.455 10.1853 116.165 9.3537C116.875 8.50185 117.453 8.0455 117.899 7.98465C118.223 8.0455 118.558 8.16719 118.903 8.34973C119.268 8.53227 119.603 8.75538 119.907 9.01905C120.231 9.28272 120.515 9.56667 120.759 9.8709C121.022 10.1751 121.225 10.4895 121.367 10.814C120.312 11.1791 119.177 12.0411 117.96 13.4C116.763 14.7589 115.556 16.4018 114.339 18.3286C113.122 20.2352 111.936 22.3242 110.78 24.5958C109.624 26.8472 108.589 29.0478 107.677 31.1977C106.744 33.3679 105.953 35.386 105.304 37.252C104.655 39.1383 104.218 40.629 103.995 41.7242ZM130.403 32.4147C129.734 34.4835 129.074 36.3697 128.425 38.0734C127.776 39.7772 127.087 41.3389 126.357 42.7586C125.606 44.1987 124.805 45.5272 123.953 46.7441C123.101 47.9408 122.168 49.0766 121.154 50.1515C119.836 51.5307 118.487 52.5753 117.108 53.2852C115.708 54.0153 114.319 54.3804 112.94 54.3804C112.23 54.3804 111.52 54.2993 110.81 54.137C110.121 53.995 109.472 53.7821 108.863 53.4981C108.255 53.2345 107.717 52.9302 107.251 52.5854C106.784 52.2203 106.45 51.835 106.247 51.4293C106.247 51.1048 106.439 50.8107 106.825 50.547C107.17 50.8513 107.454 51.0947 107.677 51.2772C107.92 51.4395 108.143 51.5814 108.346 51.7031C108.569 51.8046 108.792 51.8755 109.015 51.9161C109.259 51.9364 109.543 51.9465 109.867 51.9465C111.49 51.9465 113.072 51.4699 114.613 50.5166C116.155 49.5634 117.615 48.2146 118.994 46.4703C120.373 44.726 121.631 42.6167 122.767 40.1422C123.902 37.6475 124.866 34.8688 125.657 31.8062C125.292 32.3741 124.835 33.0738 124.288 33.9054C123.76 34.7167 123.172 35.528 122.523 36.3393C121.854 37.1506 121.174 37.8808 120.485 38.5298C119.795 39.1788 119.126 39.625 118.477 39.8684C118.01 39.8279 117.534 39.7366 117.047 39.5946C116.54 39.4324 116.073 39.2092 115.648 38.9253C115.201 38.6413 114.806 38.2965 114.461 37.8909C114.116 37.5055 113.893 37.0492 113.792 36.5218C113.792 35.7105 113.812 35.0514 113.853 34.5443C113.913 34.0575 114.015 33.5099 114.157 32.9014C114.42 31.8265 114.796 30.6096 115.282 29.2506C115.79 27.8917 116.378 26.5531 117.047 25.2347C117.716 23.9164 118.447 22.6792 119.238 21.5231C120.049 20.367 120.901 19.4644 121.793 18.8154C122.016 18.8154 122.3 18.8357 122.645 18.8762C122.99 18.9168 123.345 18.9979 123.71 19.1196C124.075 19.221 124.43 19.3529 124.775 19.5151C125.119 19.6774 125.413 19.8802 125.657 20.1236C125.353 20.4076 124.673 21.3608 123.619 22.9834C122.564 24.606 121.398 26.9385 120.12 29.9808C119.978 30.285 119.805 30.7414 119.603 31.3499C119.42 31.938 119.227 32.5567 119.025 33.2057C118.842 33.8547 118.68 34.4936 118.538 35.1224C118.396 35.7511 118.325 36.248 118.325 36.6131C118.325 36.8362 118.365 37.0086 118.447 37.1303C118.507 37.252 118.568 37.3331 118.629 37.3737C119.136 37.2926 119.816 36.8768 120.667 36.1263C121.519 35.3759 122.493 34.2097 123.588 32.6276C124.257 31.5932 124.876 30.569 125.444 29.5549C126.012 28.561 126.57 27.5469 127.117 26.5125C127.685 25.4984 128.263 24.4539 128.851 23.3789C129.46 22.304 130.099 21.1986 130.768 20.0628C131.133 20.0628 131.529 20.1033 131.955 20.1844C132.38 20.2656 132.796 20.367 133.202 20.4887C133.608 20.6307 133.952 20.7726 134.236 20.9146C134.541 21.0769 134.764 21.2391 134.906 21.4014C134.033 23.2876 133.212 25.1232 132.441 26.908C131.671 28.6929 130.991 30.5284 130.403 32.4147ZM159.822 25.9345C159.376 25.9548 158.818 26.2387 158.149 26.7863C157.5 27.3542 156.8 28.0743 156.05 28.9464C155.299 29.7983 154.519 30.7515 153.707 31.8062C152.896 32.8609 152.115 33.9054 151.365 34.9398C150.614 35.9742 149.915 36.9478 149.265 37.8605C148.616 38.7732 148.059 39.4932 147.592 40.0205C146.963 39.7771 146.426 39.4019 145.98 38.8949C145.534 38.4081 145.209 37.7895 145.006 37.039C145.148 36.1669 145.341 35.2542 145.584 34.3009C145.848 33.3477 146.183 32.364 146.588 31.3499C147.014 30.3155 147.531 29.2405 148.14 28.125C148.748 27.0094 149.489 25.8229 150.361 24.5654C149.935 24.5857 149.357 24.8899 148.627 25.4781C147.876 26.0663 147.075 26.8168 146.223 27.7295C145.371 28.6625 144.499 29.707 143.607 30.8631C142.694 31.9989 141.842 33.1246 141.051 34.2401C139.996 35.7207 139.114 37.0086 138.404 38.1039C137.715 39.2194 137.218 39.8786 136.914 40.0814C136.163 39.5338 135.646 38.9456 135.362 38.3168C135.078 37.6881 134.865 36.9985 134.723 36.248C134.764 35.5584 134.875 34.7066 135.058 33.6925C135.24 32.6581 135.504 31.6034 135.849 30.5284C136.498 28.4596 137.339 26.401 138.374 24.3525C139.408 22.3039 140.412 20.4278 141.386 18.7241C142.177 18.9067 142.887 19.1805 143.515 19.5456C144.164 19.9106 144.844 20.4481 145.554 21.158C145.27 22.0301 144.834 22.9631 144.246 23.957C143.637 24.9305 143.008 25.9548 142.359 27.0297C141.71 28.1047 141.112 29.2101 140.564 30.3459C140.037 31.4817 139.682 32.6378 139.5 33.8142C140.291 32.6783 141.234 31.3701 142.329 29.8895C143.424 28.4089 144.55 27.0196 145.706 25.7215C146.862 24.4032 148.008 23.2978 149.144 22.4054C150.28 21.4927 151.294 21.0363 152.186 21.0363C152.531 21.0363 152.906 21.087 153.312 21.1884C153.697 21.3101 154.062 21.4521 154.407 21.6144C154.752 21.7969 155.036 21.9693 155.259 22.1316C155.482 22.2735 155.614 22.3851 155.654 22.4662C155.512 23.0341 155.178 23.815 154.65 24.8088C154.123 25.7824 153.565 26.8066 152.977 27.8816C152.369 28.9565 151.811 30.0011 151.304 31.0152C150.797 32.0293 150.503 32.8305 150.422 33.4186C151.801 31.5121 153.099 29.7881 154.316 28.2467C155.553 26.7052 156.709 25.3767 157.784 24.2612C158.859 23.1659 159.863 22.3141 160.796 21.7056C161.709 21.1174 162.581 20.8233 163.412 20.8233C163.98 20.8233 164.508 20.9653 164.994 21.2493C165.501 21.5535 165.846 21.9896 166.029 22.5575C165.785 23.4093 165.37 24.4336 164.781 25.6302C164.193 26.8269 163.605 28.0844 163.017 29.4028C162.429 30.7211 161.891 32.0192 161.404 33.297C160.938 34.5747 160.705 35.7207 160.705 36.7348C160.705 37.3433 160.796 37.7388 160.979 37.9213C161.141 38.1039 161.384 38.1951 161.709 38.1951C162.033 38.1951 162.348 38.1343 162.652 38.0126C162.956 37.8706 163.179 37.7996 163.321 37.7996C163.483 37.9213 163.585 38.0633 163.625 38.2256C163.646 38.4081 163.656 38.5704 163.656 38.7123C163.088 39.1585 162.51 39.5338 161.922 39.838C161.313 40.1422 160.644 40.2943 159.914 40.2943C159.224 40.2943 158.666 40.1727 158.24 39.9293C157.794 39.7062 157.429 39.4019 157.145 39.0166C156.861 38.6109 156.658 38.1546 156.537 37.6475C156.435 37.1404 156.385 36.5827 156.385 35.9742C156.385 35.021 156.506 34.0677 156.75 33.1144C157.013 32.1611 157.318 31.2484 157.662 30.3763C158.027 29.5042 158.403 28.6929 158.788 27.9424C159.194 27.192 159.538 26.5227 159.822 25.9345ZM183.036 21.371C182.914 23.1355 182.599 24.6466 182.092 25.9041C181.585 27.1616 180.855 28.2669 179.902 29.2202C178.949 30.1735 177.793 31.0355 176.434 31.8062C175.075 32.5769 173.483 33.3172 171.657 34.0271C171.657 34.1894 171.657 34.3618 171.657 34.5443C171.637 34.7269 171.627 34.9195 171.627 35.1224C171.627 35.4874 171.657 35.8728 171.718 36.2785C171.759 36.6841 171.85 37.0492 171.992 37.3737C172.134 37.7185 172.337 38.0024 172.6 38.2256C172.864 38.4284 173.188 38.5298 173.574 38.5298C174.345 38.5298 175.095 38.3574 175.825 38.0126C176.576 37.6881 177.285 37.2723 177.955 36.7652C178.624 36.2785 179.243 35.741 179.811 35.1528C180.399 34.5646 180.916 34.0271 181.362 33.5403C181.646 33.804 181.89 34.0474 182.092 34.2705C180.815 35.9742 179.415 37.394 177.894 38.5298C176.373 39.6453 174.933 40.3552 173.574 40.6594C171.627 40.4363 170.106 39.7264 169.01 38.5298C167.915 37.3129 167.367 35.8525 167.367 34.1488C167.367 32.9927 167.53 31.8062 167.854 30.5893C168.179 29.3926 168.635 28.2264 169.223 27.0906C169.791 25.975 170.471 24.9204 171.262 23.9265C172.032 22.9327 172.864 22.0707 173.756 21.3405C174.669 20.5901 175.592 20.0019 176.525 19.576C177.478 19.1501 178.431 18.9371 179.385 18.9371C180.683 19.1196 181.9 19.9309 183.036 21.371ZM180.084 22.7704C179.334 22.8921 178.543 23.2065 177.711 23.7136C176.88 24.2206 176.109 24.9001 175.399 25.7519C174.669 26.6038 174.01 27.5976 173.422 28.7334C172.813 29.8692 172.337 31.0963 171.992 32.4147C174.263 31.2789 176.16 29.8794 177.681 28.2162C179.182 26.5531 179.983 24.7378 180.084 22.7704ZM183.979 38.1647C184.121 37.3331 184.364 36.2379 184.709 34.879C185.074 33.5403 185.5 32.1104 185.987 30.5893C186.453 29.0681 186.96 27.5469 187.508 26.0258C188.055 24.4843 188.583 23.1051 189.09 21.8882C189.455 20.9957 189.779 20.3061 190.063 19.8194C190.347 19.3123 190.662 18.8965 191.006 18.572C191.392 18.6126 191.797 18.7038 192.223 18.8458C192.649 18.9878 193.065 19.1602 193.471 19.363C193.876 19.5658 194.231 19.7788 194.536 20.0019C194.84 20.2047 195.083 20.4076 195.266 20.6104C194.495 21.5231 193.816 22.5575 193.227 23.7136C192.659 24.8697 192.071 26.3604 191.463 28.1858C193.004 26.8269 194.363 25.5187 195.54 24.2612C196.716 23.024 197.811 21.6346 198.825 20.0932C199.008 19.9512 199.312 19.8802 199.738 19.8802C200.123 19.8802 200.509 19.9411 200.894 20.0628C201.259 20.2047 201.513 20.3873 201.655 20.6104C201.148 21.9693 200.894 23.3181 200.894 24.6567C200.894 25.8939 201.077 26.8269 201.442 27.4557C201.401 27.6382 201.208 27.9627 200.864 28.4292C200.499 28.916 200.103 29.3723 199.677 29.7983C198.927 29.4129 198.247 28.8653 197.639 28.1554C197.051 27.4658 196.615 26.7052 196.331 25.8736C194.992 26.8269 193.856 27.7497 192.923 28.6422C191.99 29.5346 191.189 30.5284 190.52 31.6237C189.85 32.7189 189.282 33.9764 188.816 35.3962C188.349 36.8159 187.903 38.4994 187.477 40.4465C187.214 40.4262 186.909 40.3349 186.565 40.1727C186.2 40.0104 185.845 39.8177 185.5 39.5946C185.135 39.3715 184.81 39.1281 184.526 38.8644C184.242 38.6211 184.06 38.3878 183.979 38.1647ZM216.866 21.7969C217.15 21.7969 217.485 21.8476 217.87 21.949C218.235 22.0504 218.58 22.1823 218.905 22.3445C219.209 22.4865 219.473 22.6487 219.696 22.8313C219.899 22.9935 220 23.1457 220 23.2876C219.432 24.4843 218.905 25.681 218.418 26.8776C217.951 28.0945 217.546 29.2506 217.201 30.3459C216.856 31.4614 216.593 32.5059 216.41 33.4795C216.227 34.4328 216.136 35.2643 216.136 35.9742C216.136 36.7652 216.217 37.4244 216.38 37.9517C216.562 38.4791 216.846 38.8543 217.231 39.0774C216.887 39.3208 216.451 39.5135 215.923 39.6555C215.376 39.7974 214.889 39.8684 214.463 39.8684C212.942 39.8684 212.181 38.8137 212.181 36.7044C212.181 35.0818 212.719 32.871 213.794 30.0721C213.226 31.3701 212.567 32.5972 211.816 33.7533C211.086 34.8891 210.335 35.9032 209.565 36.7957C208.794 37.6678 208.023 38.3777 207.253 38.9253C206.462 39.4932 205.742 39.8279 205.093 39.9293C204.038 39.8887 203.186 39.3918 202.537 38.4385C201.888 37.4852 201.563 36.2683 201.563 34.7877C201.563 33.2057 201.908 31.5324 202.598 29.7678C203.267 28.0033 204.139 26.3706 205.214 24.8697C206.269 23.3688 207.425 22.1113 208.682 21.0972C209.92 20.083 211.126 19.5456 212.303 19.4847C212.587 19.5861 212.901 19.7585 213.246 20.0019C213.611 20.2656 213.956 20.5698 214.28 20.9146C214.605 21.2391 214.879 21.5839 215.102 21.949C215.325 22.2938 215.457 22.598 215.497 22.8617C214.362 23.024 213.185 23.5817 211.968 24.535C210.772 25.468 209.676 26.5937 208.682 27.912C207.709 29.2304 206.908 30.64 206.279 32.1409C205.671 33.6418 205.366 35.0514 205.366 36.3697C205.366 36.8971 205.559 37.2317 205.944 37.3737C206.776 37.2114 207.729 36.5117 208.804 35.2745C209.879 34.0373 211.187 32.1307 212.729 29.5549C213.013 29.0478 213.327 28.4799 213.672 27.8512C214.037 27.2224 214.402 26.5632 214.767 25.8736C215.132 25.2043 215.497 24.5147 215.862 23.8048C216.207 23.1152 216.542 22.4459 216.866 21.7969Z" fill="black"/>
<path d="M83.1554 57.8559L69.0713 4.01356C69.0713 4.01356 68.0329 0.0405858 64.0574 0.045598L3.10952 0.112441C3.10952 0.112441 -0.865948 0.115771 0.173241 4.08958L13.4012 54.6606C19.3723 41.5588 26.1012 26.8423 26.5957 25.758L26.949 24.9861L45.1933 24.9686L44.3179 26.8507C39.3182 37.6017 32.8166 51.7235 28.2489 61.889L80.2183 61.833C80.2183 61.833 84.1946 61.8272 83.1554 57.8559Z" fill="url(#paint0_linear_45_11)"/>
<path d="M41.0458 27.6175L28.6498 27.63C21.0531 44.247 7.13264 74.741 6.57546 76.1427C5.24389 79.49 6.86448 81.3512 7.55365 81.9543H54.4809L52.9146 77.9413H23.5625C23.5257 77.943 23.4731 77.9454 23.4088 77.9454C21.7481 77.9454 20.069 76.9397 20.0623 74.6926C20.0607 74.1671 20.059 73.3735 31.0465 49.3235C34.3606 42.0794 37.6937 34.8441 41.0458 27.6175Z" fill="url(#paint1_linear_45_11)"/>
<path d="M96.8831 64.441H96.3287V64.5668C96.3287 64.6367 96.3753 64.674 96.4591 64.6833H96.5244C96.557 64.6833 96.6036 64.6879 96.6688 64.6879C96.734 64.6879 96.8039 64.6973 96.8831 64.6973V68.7928C96.8039 68.7928 96.734 68.7974 96.6688 68.7974C96.6036 68.7974 96.557 68.8067 96.5244 68.8067H96.4591C96.3753 68.8114 96.3333 68.8487 96.3333 68.9232V69.0537H96.8831H99.6507V68.7741V68.0939H99.4877C99.3945 68.0939 99.3572 68.1545 99.3479 68.257C99.3479 68.2709 99.3432 68.2942 99.3432 68.3408C99.3432 68.3874 99.3432 68.4526 99.3339 68.5505C99.3293 68.6483 99.3246 68.7136 99.3246 68.7741H97.2139V66.8499H99.0544V66.5796H97.2139V64.7159H99.3246C99.3339 65.0001 99.3479 65.1772 99.3479 65.2377C99.3572 65.3402 99.3945 65.3915 99.4877 65.3915H99.6507V64.7159V64.441H96.8831ZM106.616 68.1917C106.523 68.1917 106.486 68.243 106.477 68.3501C106.477 68.3548 106.477 68.3828 106.472 68.4061C106.467 68.434 106.467 68.4806 106.458 68.5365C106.453 68.5971 106.444 68.6763 106.439 68.7648H104.534V64.6973C104.613 64.6973 104.678 64.6879 104.743 64.6879C104.809 64.6879 104.86 64.6833 104.892 64.6833H104.953C105.037 64.674 105.083 64.6367 105.083 64.5668V64.441H104.534H104.203H103.648V64.5668C103.648 64.6367 103.695 64.674 103.779 64.6833H103.844C103.877 64.6833 103.923 64.6879 103.989 64.6879C104.054 64.6879 104.124 64.6973 104.203 64.6973V68.7928C104.124 68.7928 104.054 68.7974 103.989 68.7974C103.923 68.7974 103.877 68.8067 103.844 68.8067H103.779C103.695 68.8114 103.648 68.8487 103.648 68.9232V69.0537H104.203H106.663H106.719H106.779V68.9279V68.667V68.1917H106.649H106.616ZM111.262 64.441H110.707V64.5668C110.707 64.6367 110.749 64.674 110.838 64.6833H110.903C110.936 64.6833 110.977 64.6879 111.043 64.6879C111.108 64.6879 111.182 64.6973 111.262 64.6973V68.7928C111.182 68.7928 111.108 68.7974 111.043 68.7974C110.977 68.7974 110.936 68.8067 110.903 68.8067H110.838C110.749 68.8114 110.712 68.8487 110.712 68.9232V69.0537H111.262H114.025V68.7741V68.0939H113.862C113.773 68.0939 113.731 68.1545 113.726 68.257C113.726 68.2709 113.717 68.2942 113.717 68.3408C113.717 68.3874 113.717 68.4526 113.712 68.5505C113.708 68.6483 113.698 68.7136 113.698 68.7741H111.592V66.8499H113.433V66.5796H111.592V64.7159H113.698C113.712 65.0001 113.726 65.1772 113.726 65.2377C113.731 65.3402 113.773 65.3915 113.862 65.3915H114.025V64.7159V64.441H111.262ZM120.655 66.957V67.1434C120.655 67.162 120.664 67.1807 120.678 67.1946C120.692 67.2086 120.711 67.2133 120.739 67.2133H121.624V68.4573C121.521 68.5179 121.414 68.5691 121.316 68.6157C121.219 68.6623 121.111 68.7089 121 68.7415C120.888 68.7741 120.762 68.7974 120.631 68.8114C120.501 68.8254 120.361 68.83 120.203 68.83C119.914 68.83 119.653 68.7835 119.42 68.6856C119.187 68.5878 118.982 68.4526 118.814 68.2756C118.642 68.0985 118.512 67.8796 118.423 67.6186C118.33 67.3577 118.279 67.0688 118.279 66.7427C118.279 66.4259 118.33 66.137 118.423 65.8807C118.512 65.6291 118.642 65.4055 118.814 65.2284C118.982 65.056 119.192 64.9162 119.434 64.8184C119.676 64.7206 119.942 64.674 120.24 64.674C120.79 64.674 121.228 64.7485 121.545 64.8976C121.568 65.3216 121.577 65.5546 121.577 65.6012C121.587 65.7083 121.633 65.7596 121.722 65.7596H121.88V64.7159C121.675 64.6227 121.414 64.5435 121.088 64.4783C120.762 64.413 120.492 64.3898 120.254 64.3898C119.905 64.3898 119.583 64.441 119.294 64.5528C119.01 64.6646 118.768 64.8277 118.567 65.0281C118.362 65.2284 118.213 65.48 118.101 65.7736C117.99 66.0578 117.938 66.3839 117.938 66.7427C117.938 67.1015 117.99 67.4229 118.101 67.7165C118.213 68.01 118.362 68.2523 118.558 68.4573C118.754 68.667 118.996 68.8254 119.271 68.9372C119.546 69.0444 119.844 69.1049 120.175 69.1049C120.371 69.1049 120.548 69.091 120.711 69.0723C120.874 69.0444 121.023 69.0118 121.167 68.9745C121.312 68.9279 121.442 68.8766 121.568 68.8114C121.689 68.7462 121.806 68.6763 121.927 68.5971V66.957H120.655ZM130.169 68.7741L129.955 68.7508L128.194 64.4363H127.863L126.092 68.7508L125.882 68.7741C125.799 68.7788 125.761 68.8254 125.761 68.9046V69.0537H125.971H126.106H126.223H126.269H126.884V68.9046C126.884 68.8161 126.828 68.7788 126.73 68.7741C126.726 68.7741 126.712 68.7648 126.693 68.7648C126.675 68.7648 126.647 68.7602 126.6 68.7602C126.558 68.7602 126.498 68.7602 126.432 68.7508L126.889 67.6233L126.922 67.5394H129.125L129.158 67.6233L129.615 68.7508C129.549 68.7602 129.498 68.7602 129.452 68.7602C129.405 68.7602 129.372 68.7648 129.354 68.7648C129.335 68.7648 129.321 68.7741 129.316 68.7741C129.219 68.7788 129.167 68.8161 129.167 68.9046V69.0537H129.778H129.824H129.95H130.081H130.295V68.9046C130.295 68.8254 130.253 68.7788 130.169 68.7741ZM127.933 65.0467C127.947 65.0094 127.965 64.9628 127.979 64.9162C127.993 64.8697 128.012 64.8277 128.026 64.7718C128.035 64.8277 128.058 64.8697 128.068 64.9162C128.082 64.9628 128.1 65.0001 128.114 65.0421L129.028 67.2925H127.024L127.933 65.0467ZM138.244 64.441H137.95H137.386V64.5668C137.386 64.6367 137.428 64.674 137.517 64.6833H137.582C137.615 64.6833 137.666 64.6879 137.731 64.6879C137.796 64.6879 137.875 64.6973 137.95 64.6973V68.3082C137.95 68.3688 137.95 68.434 137.959 68.4992L134.973 64.5016C134.949 64.4736 134.94 64.455 134.917 64.4457C134.898 64.441 134.88 64.4363 134.847 64.4363H134.684H134.129V64.5668C134.129 64.6367 134.176 64.674 134.26 64.6833H134.325C134.358 64.6833 134.404 64.6879 134.47 64.6879C134.535 64.6879 134.605 64.6973 134.684 64.6973V68.7928C134.605 68.7928 134.535 68.7974 134.47 68.7974C134.404 68.7974 134.358 68.8067 134.325 68.8067H134.26C134.176 68.8114 134.129 68.8487 134.129 68.9232V69.0537H134.684H134.973H135.537V68.9232C135.537 68.8487 135.495 68.8114 135.406 68.8067H135.341C135.308 68.8067 135.252 68.7974 135.187 68.7974C135.122 68.7974 135.047 68.7928 134.973 68.7928V65.1725C134.973 65.1119 134.973 65.0467 134.963 64.9815L137.964 68.9885C137.997 69.0351 138.029 69.0537 138.081 69.0537H138.244V64.6973C138.323 64.6973 138.388 64.6879 138.453 64.6879C138.518 64.6879 138.57 64.6833 138.602 64.6833H138.663C138.747 64.674 138.793 64.6367 138.793 64.5668V64.441H138.244ZM146.039 64.441H145.95H142.549H142.451H142.409V65.3915H142.572C142.661 65.3915 142.703 65.3402 142.707 65.2377C142.707 65.1911 142.721 65.0234 142.735 64.7206H144.082V68.7928C144.007 68.7928 143.942 68.7974 143.877 68.7974C143.811 68.7974 143.756 68.8067 143.723 68.8067H143.667C143.583 68.8114 143.537 68.8487 143.537 68.9232V69.0537H144.082H144.417H144.972V68.9232C144.972 68.8487 144.925 68.8114 144.841 68.8067H144.776C144.743 68.8067 144.697 68.7974 144.631 68.7974C144.566 68.7974 144.496 68.7928 144.417 68.7928V64.7206H145.759C145.778 65.056 145.787 65.2238 145.787 65.2377C145.792 65.3402 145.838 65.3915 145.931 65.3915H146.085V64.441H146.039ZM158.297 68.3035C158.283 68.2896 158.265 68.2756 158.246 68.2756C158.232 68.2756 158.227 68.2756 158.213 68.2849C158.204 68.2896 158.195 68.3035 158.181 68.3082C158.087 68.3921 157.99 68.4666 157.901 68.5319C157.808 68.5971 157.71 68.6437 157.598 68.6856C157.486 68.7322 157.37 68.7648 157.239 68.7835C157.109 68.8067 156.965 68.8161 156.801 68.8161C156.541 68.8161 156.289 68.7741 156.065 68.6763C155.837 68.5831 155.651 68.448 155.488 68.2709C155.325 68.0939 155.185 67.8702 155.096 67.6186C155.003 67.3624 154.956 67.0688 154.956 66.7427C154.956 66.4259 155.003 66.137 155.096 65.8807C155.194 65.6291 155.325 65.4148 155.492 65.2284C155.66 65.056 155.865 64.9162 156.098 64.8184C156.336 64.7206 156.587 64.674 156.867 64.674C157.286 64.674 157.673 64.7392 158.008 64.893C158.032 65.3076 158.05 65.5499 158.05 65.6012C158.055 65.7083 158.097 65.7596 158.185 65.7596H158.344V64.7159C157.794 64.4923 157.3 64.3898 156.867 64.3898C156.536 64.3898 156.238 64.441 155.954 64.5575C155.683 64.674 155.432 64.8324 155.236 65.0421C155.036 65.2517 154.887 65.4987 154.775 65.7829C154.663 66.0718 154.612 66.3932 154.612 66.7427C154.612 67.1015 154.672 67.4229 154.775 67.7165C154.877 68.01 155.031 68.2523 155.217 68.4573C155.408 68.667 155.637 68.8254 155.902 68.9372C156.172 69.0444 156.457 69.1049 156.778 69.1049C156.965 69.1049 157.142 69.091 157.305 69.0584C157.463 69.0257 157.612 68.9791 157.747 68.9232C157.878 68.8627 158.004 68.7928 158.115 68.7136C158.227 68.6297 158.33 68.5458 158.428 68.4387L158.297 68.3035ZM166.479 66.7427C166.479 66.3932 166.418 66.0671 166.316 65.7782C166.209 65.4893 166.059 65.2424 165.864 65.0327C165.668 64.8277 165.44 64.6646 165.174 64.5528C164.904 64.441 164.596 64.3804 164.27 64.3804C163.944 64.3804 163.651 64.441 163.385 64.5528C163.119 64.6646 162.882 64.8277 162.686 65.0327C162.49 65.2424 162.341 65.4893 162.239 65.7782C162.132 66.0671 162.076 66.3932 162.076 66.7427C162.076 67.1015 162.132 67.4276 162.239 67.7165C162.341 68.0007 162.49 68.2523 162.686 68.4573C162.882 68.667 163.119 68.8254 163.385 68.9372C163.651 69.0444 163.944 69.1049 164.27 69.1049C164.596 69.1049 164.904 69.0444 165.174 68.9372C165.44 68.8254 165.668 68.667 165.864 68.4573C166.059 68.2523 166.209 68.0007 166.316 67.7165C166.418 67.4276 166.479 67.1015 166.479 66.7427ZM166.125 66.7427C166.125 67.0688 166.087 67.3577 165.994 67.6093C165.901 67.8656 165.78 68.0892 165.617 68.2616C165.454 68.4387 165.258 68.5831 165.03 68.6763C164.801 68.7648 164.555 68.8114 164.27 68.8114C164 68.8114 163.748 68.7648 163.52 68.6763C163.292 68.5831 163.096 68.4387 162.933 68.2616C162.77 68.0892 162.64 67.8656 162.551 67.6093C162.458 67.3577 162.421 67.0688 162.421 66.7427C162.421 66.4259 162.458 66.1323 162.551 65.8761C162.64 65.6198 162.77 65.4008 162.933 65.2238C163.096 65.0467 163.292 64.9023 163.52 64.8137C163.748 64.7206 164 64.6693 164.27 64.6693C164.555 64.6693 164.801 64.7206 165.03 64.8137C165.258 64.9023 165.454 65.0467 165.617 65.2238C165.78 65.4008 165.901 65.6198 165.994 65.8761C166.087 66.1323 166.125 66.4259 166.125 66.7427ZM175.732 64.6833C175.816 64.674 175.863 64.6367 175.863 64.5668V64.441H175.317H175.08C175.047 64.441 175.029 64.441 175.01 64.4457C174.991 64.455 174.977 64.4736 174.959 64.5016L173.142 67.7025C173.123 67.7351 173.109 67.7677 173.1 67.8003C173.086 67.833 173.072 67.8702 173.058 67.9028C173.034 67.833 173.006 67.7677 172.974 67.7072L171.11 64.5016C171.087 64.4736 171.078 64.455 171.054 64.4457C171.036 64.441 171.017 64.441 170.984 64.441H170.756H170.202V64.5668C170.202 64.6367 170.248 64.674 170.332 64.6833H170.397C170.43 64.6833 170.476 64.6879 170.542 64.6879C170.607 64.6879 170.677 64.6973 170.756 64.6973V68.7928C170.677 68.7928 170.607 68.7974 170.542 68.7974C170.476 68.7974 170.43 68.8067 170.397 68.8067H170.332C170.248 68.8114 170.202 68.8487 170.202 68.9232V69.0537H170.756H171.045H171.609V68.9232C171.609 68.8487 171.567 68.8114 171.478 68.8067H171.413C171.38 68.8067 171.329 68.7974 171.264 68.7974C171.199 68.7974 171.119 68.7928 171.045 68.7928V65.1213C171.045 65.0607 171.045 65.0001 171.036 64.9349L172.904 68.1638C172.937 68.2243 172.979 68.2523 173.034 68.2523H173.086C173.142 68.2523 173.184 68.2243 173.216 68.1638L175.029 64.9349C175.024 65.0001 175.024 65.0607 175.024 65.1213V68.7928C174.945 68.7928 174.866 68.7974 174.8 68.7974C174.735 68.7974 174.684 68.8067 174.651 68.8067H174.586C174.502 68.8114 174.456 68.8487 174.456 68.9232V69.0537H175.024H175.317H175.863V68.9232C175.863 68.8487 175.816 68.8114 175.732 68.8067H175.676C175.644 68.8067 175.588 68.7974 175.522 68.7974C175.457 68.7974 175.392 68.7928 175.317 68.7928V64.6973C175.392 64.6973 175.457 64.6879 175.522 64.6879C175.588 64.6879 175.644 64.6833 175.676 64.6833H175.732ZM182.656 64.7951C182.381 64.5575 181.971 64.441 181.426 64.441H180.308H179.753V64.5668C179.753 64.6367 179.795 64.674 179.884 64.6833H179.949C179.981 64.6833 180.023 64.6879 180.089 64.6879C180.154 64.6879 180.228 64.6973 180.308 64.6973V68.7928C180.228 68.7928 180.154 68.7974 180.089 68.7974C180.023 68.7974 179.981 68.8067 179.949 68.8067H179.884C179.795 68.8114 179.753 68.8487 179.753 68.9232V69.0537H180.308H180.638H181.188V68.9232C181.188 68.8487 181.142 68.8114 181.058 68.8067H180.997C180.965 68.8067 180.913 68.7974 180.848 68.7974C180.783 68.7974 180.718 68.7928 180.638 68.7928V67.1946H181.426C181.682 67.1946 181.91 67.1527 182.111 67.0875C182.316 67.0176 182.483 66.9244 182.628 66.8033C182.772 66.6775 182.884 66.533 182.954 66.3653C183.033 66.1976 183.066 66.0112 183.066 65.8108C183.066 65.3729 182.926 65.0281 182.656 64.7951ZM182.642 66.2535C182.581 66.3932 182.497 66.5097 182.386 66.6076C182.274 66.7054 182.139 66.7846 181.976 66.8405C181.813 66.9011 181.631 66.9244 181.426 66.9244H180.638V64.7019H181.426C181.859 64.7019 182.185 64.7998 182.404 64.9908C182.623 65.1772 182.73 65.4521 182.73 65.8062C182.73 65.9692 182.698 66.1183 182.642 66.2535ZM190.754 64.441H190.423H189.789V64.5668C189.789 64.6367 189.836 64.674 189.92 64.6833H189.999C190.045 64.6833 190.111 64.6879 190.19 64.6879C190.264 64.6879 190.344 64.6973 190.423 64.6973V67.2925C190.423 67.5068 190.39 67.7025 190.325 67.8935C190.26 68.0799 190.167 68.243 190.045 68.3828C189.92 68.5179 189.775 68.6204 189.603 68.6996C189.426 68.7788 189.23 68.8161 189.006 68.8161C188.787 68.8161 188.582 68.7788 188.405 68.6996C188.233 68.6204 188.079 68.5132 187.963 68.3734C187.842 68.2383 187.753 68.0752 187.688 67.8935C187.623 67.7072 187.59 67.5068 187.59 67.2925V64.6973C187.669 64.6973 187.748 64.6879 187.828 64.6879C187.907 64.6879 187.972 64.6833 188.014 64.6833H188.093C188.177 64.674 188.224 64.6367 188.224 64.5668V64.441H187.59H187.259H186.709V64.5668C186.709 64.6367 186.751 64.674 186.835 64.6833H186.9C186.933 64.6833 186.98 64.6879 187.045 64.6879C187.11 64.6879 187.18 64.6973 187.259 64.6973V67.2925C187.259 67.5441 187.296 67.7817 187.376 68.0007C187.455 68.2243 187.571 68.42 187.72 68.5831C187.874 68.7462 188.061 68.8766 188.275 68.9698C188.494 69.0584 188.741 69.1049 189.006 69.1049C189.277 69.1049 189.514 69.0584 189.733 68.9698C189.948 68.8766 190.134 68.7462 190.288 68.5831C190.437 68.42 190.553 68.2243 190.633 68.0007C190.712 67.7817 190.754 67.5441 190.754 67.2925V64.6973C190.833 64.6973 190.898 64.6879 190.963 64.6879C191.029 64.6879 191.08 64.6833 191.112 64.6833H191.173C191.257 64.674 191.303 64.6367 191.303 64.5668V64.441H190.754ZM198.544 64.441H198.451H195.054H194.956H194.91V65.3915H195.073C195.166 65.3915 195.203 65.3402 195.213 65.2377C195.213 65.1911 195.222 65.0234 195.236 64.7206H196.587V68.7928C196.508 68.7928 196.443 68.7974 196.377 68.7974C196.312 68.7974 196.261 68.8067 196.228 68.8067H196.168C196.084 68.8114 196.037 68.8487 196.037 68.9232V69.0537H196.587H196.918H197.472V68.9232C197.472 68.8487 197.43 68.8114 197.342 68.8067H197.277C197.244 68.8067 197.202 68.7974 197.137 68.7974C197.072 68.7974 196.997 68.7928 196.918 68.7928V64.7206H198.264C198.283 65.056 198.288 65.2238 198.288 65.2377C198.297 65.3402 198.344 65.3915 198.432 65.3915H198.591V64.441H198.544ZM203.679 64.6833C203.762 64.674 203.8 64.6367 203.8 64.5668V64.4363H203.255H202.919H202.365V64.5668C202.365 64.6367 202.411 64.674 202.495 64.6833H202.56C202.593 64.6833 202.64 64.6879 202.705 64.6879C202.77 64.6879 202.845 64.6973 202.919 64.6973V68.7928C202.845 68.7928 202.77 68.7974 202.705 68.7974C202.64 68.7974 202.593 68.8067 202.56 68.8067H202.495C202.411 68.8114 202.365 68.8487 202.365 68.9232V69.0537H202.919H203.255H203.8V68.9232C203.8 68.8487 203.762 68.8114 203.679 68.8067H203.613C203.581 68.8067 203.534 68.7974 203.469 68.7974C203.404 68.7974 203.334 68.7928 203.255 68.7928V64.6973C203.334 64.6973 203.404 64.6879 203.469 64.6879C203.534 64.6879 203.581 64.6833 203.613 64.6833H203.679ZM211.804 64.441H211.511H210.942V64.5668C210.942 64.6367 210.989 64.674 211.073 64.6833H211.138C211.171 64.6833 211.227 64.6879 211.292 64.6879C211.357 64.6879 211.432 64.6973 211.511 64.6973V68.3082C211.511 68.3688 211.511 68.434 211.52 68.4992L208.529 64.5016C208.51 64.4736 208.496 64.455 208.478 64.4457C208.459 64.441 208.44 64.4363 208.408 64.4363H208.245H207.69V64.5668C207.69 64.6367 207.737 64.674 207.821 64.6833H207.886C207.918 64.6833 207.965 64.6879 208.03 64.6879C208.096 64.6879 208.165 64.6973 208.245 64.6973V68.7928C208.165 68.7928 208.096 68.7974 208.03 68.7974C207.965 68.7974 207.918 68.8067 207.886 68.8067H207.821C207.737 68.8114 207.69 68.8487 207.69 68.9232V69.0537H208.245H208.529H209.097V68.9232C209.097 68.8487 209.051 68.8114 208.967 68.8067H208.902C208.869 68.8067 208.813 68.7974 208.748 68.7974C208.683 68.7974 208.608 68.7928 208.529 68.7928V65.1725C208.529 65.1119 208.529 65.0467 208.524 64.9815L211.525 68.9885C211.557 69.0351 211.59 69.0537 211.641 69.0537H211.804V64.6973C211.884 64.6973 211.949 64.6879 212.014 64.6879C212.079 64.6879 212.13 64.6833 212.163 64.6833H212.224C212.308 64.674 212.354 64.6367 212.354 64.5668V64.441H211.804ZM218.728 66.957V67.1434C218.728 67.162 218.737 67.1807 218.751 67.1946C218.765 67.2086 218.784 67.2133 218.812 67.2133H219.697V68.4573C219.595 68.5179 219.487 68.5691 219.39 68.6157C219.292 68.6623 219.185 68.7089 219.073 68.7415C218.961 68.7741 218.835 68.7974 218.705 68.8114C218.574 68.8254 218.434 68.83 218.276 68.83C217.987 68.83 217.726 68.7835 217.493 68.6856C217.26 68.5878 217.055 68.4526 216.888 68.2756C216.715 68.0985 216.585 67.8796 216.496 67.6186C216.403 67.3577 216.352 67.0688 216.352 66.7427C216.352 66.4259 216.403 66.137 216.496 65.8807C216.585 65.6291 216.715 65.4055 216.888 65.2284C217.055 65.056 217.265 64.9162 217.507 64.8184C217.75 64.7206 218.015 64.674 218.313 64.674C218.863 64.674 219.301 64.7485 219.618 64.8976C219.641 65.3216 219.651 65.5546 219.651 65.6012C219.66 65.7083 219.706 65.7596 219.795 65.7596H219.953V64.7159C219.748 64.6227 219.487 64.5435 219.161 64.4783C218.835 64.413 218.565 64.3898 218.327 64.3898C217.978 64.3898 217.656 64.441 217.368 64.5528C217.083 64.6646 216.841 64.8277 216.641 65.0281C216.436 65.2284 216.287 65.48 216.175 65.7736C216.063 66.0578 216.012 66.3839 216.012 66.7427C216.012 67.1015 216.063 67.4229 216.175 67.7165C216.287 68.01 216.436 68.2523 216.631 68.4573C216.827 68.667 217.069 68.8254 217.344 68.9372C217.619 69.0444 217.917 69.1049 218.248 69.1049C218.444 69.1049 218.621 69.091 218.784 69.0723C218.947 69.0444 219.096 69.0118 219.241 68.9745C219.385 68.9279 219.515 68.8766 219.641 68.8114C219.762 68.7462 219.879 68.6763 220 68.5971V66.957H218.728Z" fill="black"/>
<defs>
<linearGradient id="paint0_linear_45_11" x1="-24.6352" y1="-9.02921" x2="64.2734" y2="98.635" gradientUnits="userSpaceOnUse">
<stop stop-color="#050922" stop-opacity="0"/>
<stop offset="0.44" stop-color="#52AA9A" stop-opacity="0.73"/>
<stop offset="1" stop-color="#6EE6C7"/>
</linearGradient>
<linearGradient id="paint1_linear_45_11" x1="-8.24743" y1="19.6442" x2="69.381" y2="81.8073" gradientUnits="userSpaceOnUse">
<stop stop-color="#050922" stop-opacity="0"/>
<stop offset="0.44" stop-color="#52AA9A" stop-opacity="0.73"/>
<stop offset="1" stop-color="#6EE6C7"/>
</linearGradient>
</defs>
</svg>
